<svg width="24" height="24" viewBox="0 0 24 24" fill="none" xmlns="http://www.w3.org/2000/svg">
<path d="M4.5 7.602C4.5 3.71149 8.04464 0.5 12 0.5C15.9563 0.5 19.5 3.71146 19.5 7.602C19.5 10.3859 18.1678 11.962 16.4631 13.9789C16.3849 14.0714 16.306 14.1648 16.2263 14.2593C14.7002 16.07 13.0003 18.2062 12 21.7263C10.9997 18.2062 9.29981 16.07 7.77369 14.2593C7.69405 14.1648 7.61509 14.0714 7.53691 13.9789C5.83218 11.962 4.5 10.3859 4.5 7.602ZM8.5 8C8.5 9.93314 10.0669 11.5 12 11.5C13.9331 11.5 15.5 9.93314 15.5 8C15.5 6.06697 13.9343 4.5 12 4.5C10.0657 4.5 8.5 6.06697 8.5 8Z" fill="#E042D0" stroke="black"/>
</svg>
